<mxfile host="Electron" modified="2024-05-23T14:49:13.652Z" agent="Mozilla/5.0 (Windows NT 10.0; Win64; x64) AppleWebKit/537.36 (KHTML, like Gecko) draw.io/24.4.6 Chrome/124.0.6367.207 Electron/30.0.6 Safari/537.36" etag="0jzDAnpbc0j7TcT87TUC" version="24.4.6" type="device">
  <diagram id="C5RBs43oDa-KdzZeNtuy" name="Page-1">
    <mxGraphModel dx="2049" dy="808" grid="1" gridSize="10" guides="1" tooltips="1" connect="1" arrows="1" fold="1" page="1" pageScale="1" pageWidth="827" pageHeight="1169" math="0" shadow="0">
      <root>
        <mxCell id="WIyWlLk6GJQsqaUBKTNV-0" />
        <mxCell id="WIyWlLk6GJQsqaUBKTNV-1" parent="WIyWlLk6GJQsqaUBKTNV-0" />
        <mxCell id="yK5IcBqFDdTNBukLpo75-0" value="start" style="ellipse;whiteSpace=wrap;html=1;fillColor=#d5e8d4;strokeColor=#82b366;fontSize=21;fontStyle=1" vertex="1" parent="WIyWlLk6GJQsqaUBKTNV-1">
          <mxGeometry x="290" y="20" width="100" height="60" as="geometry" />
        </mxCell>
        <mxCell id="yK5IcBqFDdTNBukLpo75-1" value="" style="endArrow=classic;html=1;rounded=0;exitX=0.5;exitY=1;exitDx=0;exitDy=0;" edge="1" parent="WIyWlLk6GJQsqaUBKTNV-1" source="yK5IcBqFDdTNBukLpo75-0" target="yK5IcBqFDdTNBukLpo75-2">
          <mxGeometry width="50" height="50" relative="1" as="geometry">
            <mxPoint x="300" y="310" as="sourcePoint" />
            <mxPoint x="340" y="120" as="targetPoint" />
          </mxGeometry>
        </mxCell>
        <mxCell id="yK5IcBqFDdTNBukLpo75-2" value="ask user which unit they want to convert to&amp;nbsp;" style="shape=parallelogram;perimeter=parallelogramPerimeter;whiteSpace=wrap;html=1;fixedSize=1;align=center;fontSize=10;fontStyle=1" vertex="1" parent="WIyWlLk6GJQsqaUBKTNV-1">
          <mxGeometry x="245" y="110" width="190" height="60" as="geometry" />
        </mxCell>
        <mxCell id="yK5IcBqFDdTNBukLpo75-3" value="" style="endArrow=classic;html=1;rounded=0;exitX=0.5;exitY=1;exitDx=0;exitDy=0;entryX=0.5;entryY=0;entryDx=0;entryDy=0;" edge="1" parent="WIyWlLk6GJQsqaUBKTNV-1" source="yK5IcBqFDdTNBukLpo75-2" target="yK5IcBqFDdTNBukLpo75-4">
          <mxGeometry width="50" height="50" relative="1" as="geometry">
            <mxPoint x="300" y="310" as="sourcePoint" />
            <mxPoint x="340" y="210" as="targetPoint" />
          </mxGeometry>
        </mxCell>
        <mxCell id="yK5IcBqFDdTNBukLpo75-4" value="what unit does the user want to convert to?" style="rhombus;whiteSpace=wrap;html=1;align=center;fontStyle=1;verticalAlign=middle;fontSize=11;" vertex="1" parent="WIyWlLk6GJQsqaUBKTNV-1">
          <mxGeometry x="270" y="200" width="140" height="120" as="geometry" />
        </mxCell>
        <mxCell id="yK5IcBqFDdTNBukLpo75-5" value="" style="endArrow=classic;html=1;rounded=0;exitX=0;exitY=0.5;exitDx=0;exitDy=0;entryX=1;entryY=0.5;entryDx=0;entryDy=0;" edge="1" parent="WIyWlLk6GJQsqaUBKTNV-1" source="yK5IcBqFDdTNBukLpo75-4" target="yK5IcBqFDdTNBukLpo75-9">
          <mxGeometry width="50" height="50" relative="1" as="geometry">
            <mxPoint x="200" y="400" as="sourcePoint" />
            <mxPoint x="200" y="260" as="targetPoint" />
          </mxGeometry>
        </mxCell>
        <mxCell id="yK5IcBqFDdTNBukLpo75-6" value="" style="endArrow=classic;html=1;rounded=0;exitX=1;exitY=0.5;exitDx=0;exitDy=0;entryX=0;entryY=0.5;entryDx=0;entryDy=0;" edge="1" parent="WIyWlLk6GJQsqaUBKTNV-1" source="yK5IcBqFDdTNBukLpo75-4" target="yK5IcBqFDdTNBukLpo75-10">
          <mxGeometry width="50" height="50" relative="1" as="geometry">
            <mxPoint x="270" y="310" as="sourcePoint" />
            <mxPoint x="480.6666259765625" y="260" as="targetPoint" />
          </mxGeometry>
        </mxCell>
        <mxCell id="yK5IcBqFDdTNBukLpo75-7" value="celsius" style="text;html=1;align=center;verticalAlign=middle;resizable=0;points=[];autosize=1;strokeColor=none;fillColor=none;" vertex="1" parent="WIyWlLk6GJQsqaUBKTNV-1">
          <mxGeometry x="190" y="200" width="60" height="30" as="geometry" />
        </mxCell>
        <mxCell id="yK5IcBqFDdTNBukLpo75-8" value="Fahrenheit" style="text;html=1;align=center;verticalAlign=middle;resizable=0;points=[];autosize=1;strokeColor=none;fillColor=none;" vertex="1" parent="WIyWlLk6GJQsqaUBKTNV-1">
          <mxGeometry x="399" y="200" width="80" height="30" as="geometry" />
        </mxCell>
        <mxCell id="yK5IcBqFDdTNBukLpo75-9" value="ask for Fahrenheit value &quot;F&quot;" style="shape=parallelogram;perimeter=parallelogramPerimeter;whiteSpace=wrap;html=1;fixedSize=1;fontStyle=1;fontSize=11;" vertex="1" parent="WIyWlLk6GJQsqaUBKTNV-1">
          <mxGeometry x="90" y="230" width="130" height="60" as="geometry" />
        </mxCell>
        <mxCell id="yK5IcBqFDdTNBukLpo75-10" value="&lt;span style=&quot;font-size: 11px; font-weight: 700;&quot;&gt;ask for celicus value &quot;C&quot;&lt;/span&gt;" style="shape=parallelogram;perimeter=parallelogramPerimeter;whiteSpace=wrap;html=1;fixedSize=1;" vertex="1" parent="WIyWlLk6GJQsqaUBKTNV-1">
          <mxGeometry x="490" y="230" width="130" height="60" as="geometry" />
        </mxCell>
        <mxCell id="yK5IcBqFDdTNBukLpo75-13" value="&lt;b&gt;is it an integer&lt;/b&gt;" style="rhombus;whiteSpace=wrap;html=1;" vertex="1" parent="WIyWlLk6GJQsqaUBKTNV-1">
          <mxGeometry x="515" y="350" width="80" height="80" as="geometry" />
        </mxCell>
        <mxCell id="yK5IcBqFDdTNBukLpo75-14" value="" style="endArrow=classic;html=1;rounded=0;exitX=0.5;exitY=1;exitDx=0;exitDy=0;entryX=0.5;entryY=0;entryDx=0;entryDy=0;" edge="1" parent="WIyWlLk6GJQsqaUBKTNV-1" source="yK5IcBqFDdTNBukLpo75-10" target="yK5IcBqFDdTNBukLpo75-13">
          <mxGeometry width="50" height="50" relative="1" as="geometry">
            <mxPoint x="580" y="470" as="sourcePoint" />
            <mxPoint x="630" y="420" as="targetPoint" />
          </mxGeometry>
        </mxCell>
        <mxCell id="yK5IcBqFDdTNBukLpo75-15" value="" style="endArrow=classic;html=1;rounded=0;exitX=1;exitY=0.5;exitDx=0;exitDy=0;entryX=1;entryY=0.5;entryDx=0;entryDy=0;" edge="1" parent="WIyWlLk6GJQsqaUBKTNV-1" source="yK5IcBqFDdTNBukLpo75-13" target="yK5IcBqFDdTNBukLpo75-10">
          <mxGeometry width="50" height="50" relative="1" as="geometry">
            <mxPoint x="580" y="470" as="sourcePoint" />
            <mxPoint x="830" y="110" as="targetPoint" />
            <Array as="points">
              <mxPoint x="760" y="390" />
              <mxPoint x="760" y="320" />
              <mxPoint x="760" y="260" />
            </Array>
          </mxGeometry>
        </mxCell>
        <mxCell id="yK5IcBqFDdTNBukLpo75-16" value="is it an integer" style="rhombus;whiteSpace=wrap;html=1;fontStyle=1" vertex="1" parent="WIyWlLk6GJQsqaUBKTNV-1">
          <mxGeometry x="115" y="350" width="80" height="80" as="geometry" />
        </mxCell>
        <mxCell id="yK5IcBqFDdTNBukLpo75-17" value="" style="endArrow=classic;html=1;rounded=0;entryX=0.5;entryY=0;entryDx=0;entryDy=0;exitX=0.5;exitY=1;exitDx=0;exitDy=0;" edge="1" parent="WIyWlLk6GJQsqaUBKTNV-1" target="yK5IcBqFDdTNBukLpo75-16" source="yK5IcBqFDdTNBukLpo75-9">
          <mxGeometry width="50" height="50" relative="1" as="geometry">
            <mxPoint x="70" y="300" as="sourcePoint" />
            <mxPoint x="125" y="580" as="targetPoint" />
          </mxGeometry>
        </mxCell>
        <mxCell id="yK5IcBqFDdTNBukLpo75-18" value="" style="endArrow=classic;html=1;rounded=0;entryX=0;entryY=0.5;entryDx=0;entryDy=0;exitX=0;exitY=0.5;exitDx=0;exitDy=0;" edge="1" parent="WIyWlLk6GJQsqaUBKTNV-1" source="yK5IcBqFDdTNBukLpo75-16" target="yK5IcBqFDdTNBukLpo75-9">
          <mxGeometry width="50" height="50" relative="1" as="geometry">
            <mxPoint x="-100" y="380" as="sourcePoint" />
            <mxPoint x="-55" y="410" as="targetPoint" />
            <Array as="points">
              <mxPoint y="390" />
              <mxPoint y="260" />
            </Array>
          </mxGeometry>
        </mxCell>
        <mxCell id="yK5IcBqFDdTNBukLpo75-19" value="no" style="text;html=1;align=center;verticalAlign=middle;resizable=0;points=[];autosize=1;strokeColor=none;fillColor=none;" vertex="1" parent="WIyWlLk6GJQsqaUBKTNV-1">
          <mxGeometry x="-10" y="320" width="40" height="30" as="geometry" />
        </mxCell>
        <mxCell id="yK5IcBqFDdTNBukLpo75-20" value="no" style="text;html=1;align=center;verticalAlign=middle;resizable=0;points=[];autosize=1;strokeColor=none;fillColor=none;" vertex="1" parent="WIyWlLk6GJQsqaUBKTNV-1">
          <mxGeometry x="705" y="308" width="40" height="30" as="geometry" />
        </mxCell>
        <mxCell id="yK5IcBqFDdTNBukLpo75-21" value="" style="endArrow=classic;html=1;rounded=0;exitX=0.5;exitY=1;exitDx=0;exitDy=0;entryX=0.5;entryY=0;entryDx=0;entryDy=0;" edge="1" parent="WIyWlLk6GJQsqaUBKTNV-1" source="yK5IcBqFDdTNBukLpo75-13" target="yK5IcBqFDdTNBukLpo75-25">
          <mxGeometry width="50" height="50" relative="1" as="geometry">
            <mxPoint x="349" y="510" as="sourcePoint" />
            <mxPoint x="685" y="470" as="targetPoint" />
          </mxGeometry>
        </mxCell>
        <mxCell id="yK5IcBqFDdTNBukLpo75-22" value="" style="endArrow=classic;html=1;rounded=0;exitX=0.5;exitY=1;exitDx=0;exitDy=0;entryX=0.5;entryY=0;entryDx=0;entryDy=0;" edge="1" parent="WIyWlLk6GJQsqaUBKTNV-1" source="yK5IcBqFDdTNBukLpo75-16" target="yK5IcBqFDdTNBukLpo75-36">
          <mxGeometry width="50" height="50" relative="1" as="geometry">
            <mxPoint x="50" y="500" as="sourcePoint" />
            <mxPoint x="75" y="480" as="targetPoint" />
          </mxGeometry>
        </mxCell>
        <mxCell id="yK5IcBqFDdTNBukLpo75-23" value="yes" style="text;html=1;align=center;verticalAlign=middle;resizable=0;points=[];autosize=1;strokeColor=none;fillColor=none;" vertex="1" parent="WIyWlLk6GJQsqaUBKTNV-1">
          <mxGeometry x="70" y="430" width="40" height="30" as="geometry" />
        </mxCell>
        <mxCell id="yK5IcBqFDdTNBukLpo75-24" value="yes" style="text;html=1;align=center;verticalAlign=middle;resizable=0;points=[];autosize=1;strokeColor=none;fillColor=none;" vertex="1" parent="WIyWlLk6GJQsqaUBKTNV-1">
          <mxGeometry x="685" y="440" width="40" height="30" as="geometry" />
        </mxCell>
        <mxCell id="yK5IcBqFDdTNBukLpo75-25" value="&lt;b style=&quot;font-size: 16px;&quot;&gt;&lt;span style=&quot;color: rgb(32, 33, 36); font-family: arial, sans-serif; text-align: left; background-color: rgb(255, 255, 255);&quot;&gt;(&lt;/span&gt;&lt;span style=&quot;color: rgb(32, 33, 36); font-family: arial, sans-serif; text-align: left; background-color: rgb(255, 255, 255);&quot;&gt;C&lt;/span&gt;&lt;span style=&quot;color: rgb(32, 33, 36); font-family: arial, sans-serif; text-align: left; background-color: rgb(255, 255, 255);&quot;&gt;&amp;nbsp;× 9/5) + 32&amp;nbsp;&lt;/span&gt;&lt;/b&gt;" style="shape=parallelogram;perimeter=parallelogramPerimeter;whiteSpace=wrap;html=1;fixedSize=1;" vertex="1" parent="WIyWlLk6GJQsqaUBKTNV-1">
          <mxGeometry x="445" y="480" width="220" height="110" as="geometry" />
        </mxCell>
        <mxCell id="yK5IcBqFDdTNBukLpo75-26" value="" style="endArrow=classic;html=1;rounded=0;exitX=0.5;exitY=1;exitDx=0;exitDy=0;" edge="1" parent="WIyWlLk6GJQsqaUBKTNV-1" source="yK5IcBqFDdTNBukLpo75-25" target="yK5IcBqFDdTNBukLpo75-27">
          <mxGeometry width="50" height="50" relative="1" as="geometry">
            <mxPoint x="600" y="510" as="sourcePoint" />
            <mxPoint x="685" y="640" as="targetPoint" />
          </mxGeometry>
        </mxCell>
        <mxCell id="yK5IcBqFDdTNBukLpo75-27" value="&lt;b&gt;&lt;font style=&quot;font-size: 14px;&quot;&gt;output Celicus&lt;/font&gt;&lt;/b&gt;" style="shape=parallelogram;perimeter=parallelogramPerimeter;whiteSpace=wrap;html=1;fixedSize=1;" vertex="1" parent="WIyWlLk6GJQsqaUBKTNV-1">
          <mxGeometry x="495" y="630" width="120" height="60" as="geometry" />
        </mxCell>
        <mxCell id="yK5IcBqFDdTNBukLpo75-28" value="" style="endArrow=classic;html=1;rounded=0;exitX=0.5;exitY=1;exitDx=0;exitDy=0;entryX=1;entryY=0.5;entryDx=0;entryDy=0;" edge="1" parent="WIyWlLk6GJQsqaUBKTNV-1" source="yK5IcBqFDdTNBukLpo75-27" target="yK5IcBqFDdTNBukLpo75-40">
          <mxGeometry width="50" height="50" relative="1" as="geometry">
            <mxPoint x="600" y="650" as="sourcePoint" />
            <mxPoint x="400" y="770" as="targetPoint" />
            <Array as="points">
              <mxPoint x="555" y="760" />
            </Array>
          </mxGeometry>
        </mxCell>
        <mxCell id="yK5IcBqFDdTNBukLpo75-36" value="&lt;b style=&quot;font-size: 19px;&quot;&gt;&lt;span style=&quot;color: rgb(32, 33, 36); font-family: arial, sans-serif; text-align: left; background-color: rgb(255, 255, 255);&quot;&gt;(&lt;/span&gt;&lt;span style=&quot;color: rgb(32, 33, 36); font-family: arial, sans-serif; text-align: left; background-color: rgb(255, 255, 255);&quot;&gt;F&lt;/span&gt;&lt;span style=&quot;color: rgb(32, 33, 36); font-family: arial, sans-serif; text-align: left; background-color: rgb(255, 255, 255);&quot;&gt;&amp;nbsp;− 32) × 5/9&amp;nbsp;&lt;/span&gt;&lt;/b&gt;" style="shape=parallelogram;perimeter=parallelogramPerimeter;whiteSpace=wrap;html=1;fixedSize=1;" vertex="1" parent="WIyWlLk6GJQsqaUBKTNV-1">
          <mxGeometry x="45" y="480" width="220" height="110" as="geometry" />
        </mxCell>
        <mxCell id="yK5IcBqFDdTNBukLpo75-37" value="&lt;b&gt;output Fahrenheit&lt;/b&gt;" style="shape=parallelogram;perimeter=parallelogramPerimeter;whiteSpace=wrap;html=1;fixedSize=1;" vertex="1" parent="WIyWlLk6GJQsqaUBKTNV-1">
          <mxGeometry x="95" y="630" width="120" height="60" as="geometry" />
        </mxCell>
        <mxCell id="yK5IcBqFDdTNBukLpo75-38" value="" style="endArrow=classic;html=1;rounded=0;exitX=0.5;exitY=1;exitDx=0;exitDy=0;" edge="1" parent="WIyWlLk6GJQsqaUBKTNV-1" source="yK5IcBqFDdTNBukLpo75-37" target="yK5IcBqFDdTNBukLpo75-40">
          <mxGeometry width="50" height="50" relative="1" as="geometry">
            <mxPoint x="-5" y="670" as="sourcePoint" />
            <mxPoint x="300" y="770" as="targetPoint" />
            <Array as="points">
              <mxPoint x="155" y="760" />
            </Array>
          </mxGeometry>
        </mxCell>
        <mxCell id="yK5IcBqFDdTNBukLpo75-39" value="" style="endArrow=classic;html=1;rounded=0;exitX=0.5;exitY=1;exitDx=0;exitDy=0;entryX=0.5;entryY=0;entryDx=0;entryDy=0;" edge="1" parent="WIyWlLk6GJQsqaUBKTNV-1" source="yK5IcBqFDdTNBukLpo75-36" target="yK5IcBqFDdTNBukLpo75-37">
          <mxGeometry width="50" height="50" relative="1" as="geometry">
            <mxPoint x="480" y="420" as="sourcePoint" />
            <mxPoint x="530" y="370" as="targetPoint" />
          </mxGeometry>
        </mxCell>
        <mxCell id="yK5IcBqFDdTNBukLpo75-40" value="stop" style="ellipse;whiteSpace=wrap;html=1;fontStyle=1;fontSize=29;fillColor=#f8cecc;strokeColor=#b85450;" vertex="1" parent="WIyWlLk6GJQsqaUBKTNV-1">
          <mxGeometry x="290" y="720" width="120" height="80" as="geometry" />
        </mxCell>
      </root>
    </mxGraphModel>
  </diagram>
</mxfile>
